<svg width="240" height="256" viewBox="0 0 240 256" fill="none" xmlns="http://www.w3.org/2000/svg">
<path d="M0.852924 172.744C7.99522 206.123 64.8465 231.625 64.8465 231.625C64.8465 231.625 218.427 289.007 225.973 225.852C228.92 201.196 211.668 189.331 208.832 164.662C203.147 115.208 255.927 85.1003 235.115 39.972C207.245 -20.4616 69.4175 6.4904 69.4175 6.4904C69.4175 6.4904 28.6941 7.52326 16.8513 26.1175C2.38421 48.8323 34.9282 66.0861 33.9925 93.0806C32.8235 126.806 -6.20484 139.759 0.852924 172.744Z" fill="#DCEDC8"/>
<path d="M86.646 196.508L19.046 128.908C14.9847 124.847 14.9847 118.262 19.046 114.2L33.7534 99.4921C37.8147 95.4304 44.4 95.4304 48.4613 99.4921L93.9999 145.03L191.539 47.4921C195.6 43.4308 202.185 43.4308 206.246 47.4921L220.954 62.2C225.015 66.2613 225.015 72.8462 220.954 76.9079L101.354 196.508C97.2922 200.57 90.7072 200.57 86.646 196.508Z" fill="#689F38"/>
</svg>
