<svg width="25" height="18" viewBox="0 0 25 18" fill="none" xmlns="http://www.w3.org/2000/svg">
<rect y="0.837646" width="24" height="16" rx="4" transform="rotate(-2 0 0.837646)" fill="#4E342E"/>
<circle cx="8.20457" cy="6.55472" r="2" transform="rotate(-2 8.20457 6.55472)" fill="#FFFDF5"/>
<path d="M12.429 12.9112C12.4084 12.3206 12.2846 11.7394 12.0646 11.2008C11.8447 10.6622 11.5329 10.1767 11.1471 9.77202C10.7613 9.36738 10.3091 9.0515 9.81617 8.84243C9.32328 8.63336 8.79939 8.53518 8.27442 8.55352C7.74945 8.57185 7.23369 8.70633 6.75657 8.94927C6.27946 9.19222 5.85034 9.53887 5.49371 9.96944C5.13709 10.4 4.85994 10.9061 4.6781 11.4587C4.49626 12.0114 4.41328 12.5998 4.4339 13.1904L8.43147 13.0508L12.429 12.9112Z" fill="#FFFDF5"/>
</svg>
