<svg width="24" height="19" viewBox="0 0 24 19" fill="none" xmlns="http://www.w3.org/2000/svg">
<path d="M8.41403 17.1248L8.70573 15.6867C8.80167 15.2137 8.65233 14.7243 8.30868 14.3854L5.84402 11.9553C5.57175 11.6868 5.41846 11.3204 5.41846 10.9381V6.92184C5.41846 6.41687 5.68504 5.94942 6.11965 5.69231L11.6812 2.40214C12.0462 2.18616 12.511 2.24318 12.813 2.54099C13.2496 2.9714 13.1604 3.69848 12.6327 4.01062L10.3868 5.33933C10.2866 5.3986 10.194 5.46988 10.1111 5.55161L9.28508 6.3661C9.0128 6.63456 8.85951 7.00098 8.85951 7.38335V9.49999C8.85951 9.87476 9.16332 10.1786 9.53808 10.1786H12.4029C12.7783 10.1786 13.1386 10.3263 13.4059 10.5899L14.9949 12.1566C15.4056 12.5615 15.4056 13.2242 14.9949 13.6291C14.6324 13.9866 14.0635 14.0269 13.6542 13.7242L11.8596 12.3971C11.699 12.2784 11.5046 12.2143 11.3048 12.2143C10.5569 12.2143 10.113 13.0503 10.5319 13.6699L10.6827 13.8929C10.8377 14.1221 10.8984 14.4022 10.8523 14.675L10.3765 17.4896C10.2954 17.9699 9.87939 18.3214 9.3923 18.3214C8.76128 18.3214 8.28858 17.7432 8.41403 17.1248Z" fill="#4E342E"/>
<path d="M22.5715 19H15.9157C14.8716 19 14.1802 17.9165 14.6201 16.9695L16.016 13.9649C16.0745 13.839 16.1143 13.7052 16.1342 13.5678L16.5211 10.8976C16.5633 10.6063 16.5145 10.3091 16.3814 10.0466L15.2322 7.78046C15.1715 7.66075 15.1279 7.53308 15.1029 7.40122L14.0179 1.69544C13.8505 0.815242 14.5253 0 15.4213 0H22.5715C23.3604 0 24 0.639593 24 1.42857V17.5714C24 18.3604 23.3604 19 22.5715 19Z" fill="#8D6E63"/>
<ellipse cx="6.10662" cy="2.7143" rx="2.06463" ry="2.03571" fill="#4E342E"/>
<path d="M5.76809 5.87018L2.14326 10.6004C1.77195 11.085 1.90407 11.7824 2.42843 12.1059C2.89342 12.3927 3.50141 12.2788 3.82436 11.8444L7.8441 6.43789C7.88971 6.37655 7.92366 6.30751 7.94434 6.23409C8.05809 5.83009 7.74889 5.42853 7.32407 5.42853L6.66847 5.42854C6.31433 5.42854 5.98137 5.59186 5.76809 5.87018Z" fill="#4E342E"/>
</svg>
