<svg width="27" height="19" viewBox="0 0 27 19" fill="none" xmlns="http://www.w3.org/2000/svg">
<path fill-rule="evenodd" clip-rule="evenodd" d="M21 6.60059H6V15.6006C6 16.7052 6.89543 17.6006 8 17.6006H11.5V15.1006C11.5 13.996 12.3954 13.1006 13.5 13.1006C14.6046 13.1006 15.5 13.996 15.5 15.1006V17.6006H19C20.1046 17.6006 21 16.7052 21 15.6006V6.60059Z" fill="#4E342E"/>
<path d="M12.89 1.07016C13.2496 0.793367 13.7504 0.793367 14.11 1.07016L22.8629 7.80818C23.6194 8.39052 23.2076 9.60059 22.2529 9.60059H4.74705C3.79239 9.60059 3.38058 8.39052 4.13706 7.80818L12.89 1.07016Z" fill="#8D6E63"/>
</svg>
